<?xml version="1.0" standalone="no"?>
<!DOCTYPE svg PUBLIC "-//W3C//DTD SVG 20010904//EN"
 "http://www.w3.org/TR/2001/REC-SVG-20010904/DTD/svg10.dtd">
<svg version="1.0" xmlns="http://www.w3.org/2000/svg"
 width="1000.000000pt" height="617.000000pt" viewBox="0 0 1000.000000 617.000000"
 preserveAspectRatio="xMidYMid meet">

<g transform="translate(0.000000,617.000000) scale(0.100000,-0.100000)"
fill="#000000" stroke="none">
<path d="M4510 5197 c-3 -2 -134 -7 -292 -11 -158 -3 -293 -8 -300 -10 -7 -3
-94 -7 -193 -10 -176 -6 -621 -30 -760 -41 -38 -3 -135 -10 -215 -15 -432 -32
-929 -87 -1095 -122 -255 -53 -354 -97 -432 -191 -90 -110 -177 -609 -201
-1162 -9 -219 -9 -880 0 -1100 21 -486 87 -904 171 -1084 29 -64 88 -123 150
-153 45 -22 199 -67 277 -81 175 -32 248 -43 390 -62 111 -14 560 -57 725 -70
44 -3 139 -10 210 -15 280 -21 561 -37 855 -50 129 -5 273 -12 320 -15 182
-10 618 -20 880 -20 470 0 1368 35 1905 75 72 5 198 14 280 20 514 38 966 91
1195 140 308 67 381 116 450 305 64 175 124 608 146 1050 6 128 6 909 -1 1040
-28 573 -109 1052 -196 1159 -80 99 -139 137 -268 172 -275 75 -678 122 -1551
183 -165 12 -875 49 -1095 57 -152 6 -1350 16 -1355 11z m1445 -143 c55 -3
282 -14 505 -25 1044 -51 1744 -124 2046 -214 77 -22 139 -69 173 -128 63
-112 115 -403 153 -862 18 -207 17 -1257 0 -1460 -41 -477 -92 -758 -159 -872
-14 -25 -42 -55 -62 -68 -123 -81 -699 -167 -1506 -225 -342 -24 -953 -57
-1210 -65 -104 -3 -212 -8 -240 -10 -98 -9 -905 -12 -1159 -5 -701 21 -1619
73 -2041 115 -82 9 -197 20 -255 26 -381 39 -741 111 -822 164 -156 103 -241
757 -232 1795 6 629 46 1065 125 1349 34 120 62 170 117 205 125 82 638 158
1459 216 347 24 1022 59 1372 70 263 8 1542 4 1736 -6z"/>
<path d="M4755 4973 c-280 -2 -875 -21 -1080 -33 -82 -5 -199 -12 -260 -15
-762 -42 -1682 -145 -1885 -210 -60 -20 -113 -65 -139 -117 -60 -125 -122
-589 -141 -1053 -28 -706 7 -1370 95 -1788 28 -130 47 -176 96 -225 50 -51
100 -71 238 -98 214 -41 769 -104 1136 -129 50 -3 149 -10 220 -15 840 -62
1895 -85 2720 -60 300 9 972 42 1120 55 33 3 130 10 215 15 621 41 1275 126
1377 178 60 31 114 81 131 122 32 77 88 419 112 685 6 66 13 136 16 155 13 86
12 1109 -1 1290 -20 276 -46 482 -85 690 -38 198 -59 237 -146 277 -163 75
-940 166 -1934 228 -47 3 -116 8 -155 10 -359 24 -1168 42 -1650 38z m1170
-146 c22 -3 112 -8 200 -12 214 -8 773 -42 1015 -60 648 -50 1242 -133 1310
-184 32 -23 59 -139 94 -396 98 -721 82 -1788 -35 -2385 -27 -133 -40 -165
-78 -184 -111 -58 -716 -135 -1411 -181 -1442 -95 -2647 -95 -4065 0 -371 25
-628 49 -919 86 -370 48 -495 81 -527 140 -37 69 -91 462 -115 830 -18 287
-15 1093 5 1339 15 179 57 509 76 590 33 145 34 147 79 169 174 88 1514 217
2563 247 120 4 220 9 223 11 6 6 1531 -4 1585 -10z"/>
<path d="M1690 4035 c0 -3 0 -195 0 -427 l0 -423 397 -5 398 -5 60 -29 c118
-57 187 -160 193 -288 7 -145 -53 -259 -173 -324 -182 -100 -405 -31 -502 156
-27 52 -28 63 -31 208 l-4 152 -171 0 -172 0 2 -107 c4 -234 16 -301 73 -413
34 -67 66 -108 144 -183 69 -67 117 -101 130 -92 3 3 4 2 1 -2 -8 -10 76 -50
143 -69 141 -40 277 -41 407 -2 86 25 185 68 185 79 0 5 6 9 13 9 7 0 41 26
77 59 357 322 287 880 -139 1109 -33 17 -103 43 -156 57 -90 23 -114 25 -316
25 l-219 0 0 260 0 260 -170 0 c-93 0 -170 -2 -170 -5z"/>
<path d="M7950 3110 l0 -930 170 0 170 0 0 930 0 930 -170 0 -170 0 0 -930z"/>
<path d="M3730 3514 c-64 -13 -170 -49 -222 -75 -67 -34 -181 -126 -172 -140
3 -5 0 -8 -7 -7 -16 4 -82 -82 -119 -154 -91 -175 -94 -403 -9 -583 15 -33 39
-73 53 -89 14 -16 26 -35 26 -42 0 -21 138 -141 203 -177 76 -42 210 -84 297
-92 66 -7 206 7 270 27 44 13 164 71 168 81 2 4 9 7 16 7 22 0 164 144 202
204 29 47 84 166 84 183 0 2 -82 3 -183 3 l-184 0 -31 -39 c-37 -46 -110 -98
-166 -118 -50 -17 -158 -19 -217 -3 -51 14 -123 57 -161 97 -28 30 -83 131
-76 138 3 3 237 5 521 6 l517 0 0 80 c0 325 -199 586 -515 676 -51 14 -250 26
-295 17z m218 -348 c56 -15 86 -32 134 -75 34 -29 88 -104 88 -120 0 -13 -646
-16 -654 -3 -3 5 6 25 19 45 14 20 25 41 25 46 0 6 3 11 8 11 4 0 21 13 37 28
75 71 223 100 343 68z"/>
<path d="M5125 3509 c-48 -11 -140 -53 -150 -68 -12 -21 -25 -11 -25 19 l0 30
-170 0 -170 0 0 -655 0 -655 170 0 170 0 0 414 c0 282 4 424 11 447 34 99 169
159 266 117 44 -19 100 -81 112 -124 7 -25 11 -183 11 -446 l0 -408 170 0 170
0 0 411 c0 260 4 426 11 453 22 87 90 136 191 136 60 0 71 -3 110 -33 80 -61
78 -46 78 -534 l0 -433 175 0 175 0 0 433 c0 337 -4 447 -15 500 -39 186 -185
333 -391 393 -92 27 -249 14 -349 -27 -41 -18 -86 -42 -100 -55 l-25 -23 -27
25 c-14 13 -37 27 -50 30 -13 4 -23 10 -23 14 0 4 -29 17 -65 29 -70 23 -185
27 -260 10z"/>
<path d="M7070 3510 c-252 -38 -468 -217 -554 -460 -28 -79 -31 -95 -30 -215
0 -105 4 -142 21 -193 28 -85 114 -234 131 -227 8 3 10 0 6 -6 -12 -20 124
-137 201 -173 130 -63 206 -80 340 -80 131 1 217 20 326 75 84 42 216 156 254
219 91 154 117 241 117 390 -1 253 -135 473 -367 601 -103 57 -313 89 -445 69z
m272 -363 c61 -30 91 -55 134 -112 73 -94 85 -250 29 -354 -115 -211 -399
-259 -569 -97 -89 86 -126 219 -96 344 23 97 114 193 221 233 78 28 208 22
281 -14z"/>
</g>
</svg>
